<?xml version="1.0" encoding="UTF-8" standalone="no"?>
<!-- Created with Inkscape (http://www.inkscape.org/) -->

<svg
   width="160mm"
   height="160mm"
   viewBox="0 0 160 160.00001"
   version="1.1"
   id="svg1"
   inkscape:version="1.4.2 (ebf0e940d0, 2025-05-08)"
   sodipodi:docname="icon-dark.svg"
   xmlns:inkscape="http://www.inkscape.org/namespaces/inkscape"
   xmlns:sodipodi="http://sodipodi.sourceforge.net/DTD/sodipodi-0.dtd"
   xmlns="http://www.w3.org/2000/svg"
   xmlns:svg="http://www.w3.org/2000/svg">
  <sodipodi:namedview
     id="namedview1"
     pagecolor="#808080"
     bordercolor="#000000"
     borderopacity="0.25"
     inkscape:showpageshadow="2"
     inkscape:pageopacity="0.0"
     inkscape:pagecheckerboard="0"
     inkscape:deskcolor="#d1d1d1"
     inkscape:document-units="mm"
     inkscape:zoom="2.2556397"
     inkscape:cx="252.47827"
     inkscape:cy="411.85656"
     inkscape:window-width="2560"
     inkscape:window-height="2880"
     inkscape:window-x="0"
     inkscape:window-y="0"
     inkscape:window-maximized="1"
     inkscape:current-layer="g22" />
  <defs
     id="defs1" />
  <g
     inkscape:label="Layer 1"
     inkscape:groupmode="layer"
     id="layer1"
     transform="translate(-38.145969,-67.733331)">
    <g
       id="layer1-5"
       transform="matrix(2.4127974,0,0,2.4127974,-72.888428,-127.50999)">
      <g
         id="g22"
         transform="translate(12.103348,-11.477736)">
        <path
           d="m 67.002417,126.68672 -0.316776,0.21704 c -0.174159,0.1195 -0.404177,0.33542 -0.51108,0.47956 l -0.194304,0.262 -0.0279,2.22312 -0.02791,2.22364 h -1.932699 c -2.11449,0 -2.391541,0.0481 -2.868558,0.49764 -0.712063,0.67104 -0.571504,1.86378 0.280603,2.38332 l 0.302823,0.18448 2.108916,5.2e-4 h 2.109432 l 0.02739,2.26084 0.0279,2.26033 0.267684,0.35088 c 0.475868,0.62349 1.491147,0.80112 2.076876,0.36381 0.135254,-0.10099 0.331821,-0.29878 0.437183,-0.43977 l 0.191719,-0.25632 0.02791,-2.26962 0.02791,-2.27015 h 2.13682 2.136821 l 0.263033,-0.13591 c 0.922198,-0.47689 1.104073,-1.72946 0.353467,-2.43654 -0.47414,-0.44665 -0.750786,-0.49351 -2.910934,-0.49351 H 69.00953 l -0.02791,-2.22312 -0.02791,-2.22364 -0.191719,-0.25631 c -0.105362,-0.14099 -0.303596,-0.33979 -0.440283,-0.44184 l -0.248047,-0.18552 -0.535885,-0.0377 z"
           style="fill:#ffffff"
           id="path2" />
        <path
           d="m 75.922286,123.25592 -8.648051,0.0279 -8.647534,0.0279 -0.376721,0.24908 c -0.207136,0.13709 -0.475589,0.40903 -0.596863,0.6041 l -0.220658,0.3545 -0.02532,9.04958 -0.0248,9.04906 0.197404,0.40721 c 0.211511,0.43692 0.65506,0.83114 1.07797,0.95808 0.143854,0.0432 4.112031,0.0828 8.818583,0.0868 l 8.557617,0.008 0.315743,-0.10697 c 0.527515,-0.17892 0.837208,-0.45531 1.068669,-0.9524 l 0.220658,-0.47387 v -8.87284 -8.87336 l -0.220658,-0.47388 c -0.244051,-0.52412 -0.563826,-0.7976 -1.124479,-0.96066 z m -8.919869,3.4308 0.535368,0.0372 0.535885,0.0377 0.248047,0.18552 c 0.136687,0.10205 0.334921,0.30085 0.440283,0.44184 l 0.191719,0.25631 0.02791,2.22364 0.02791,2.22312 h 1.979207 c 2.160148,0 2.436794,0.0469 2.910934,0.49351 0.750606,0.70708 0.568731,1.95965 -0.353467,2.43654 l -0.263033,0.13591 h -2.13683 -2.13682 l -0.02791,2.27015 -0.02791,2.26962 -0.191719,0.25632 c -0.105362,0.14099 -0.301929,0.33878 -0.437183,0.43977 -0.585729,0.43731 -1.601008,0.25968 -2.076876,-0.36381 l -0.267684,-0.35088 -0.0279,-2.26033 -0.02739,-2.26084 h -2.109432 l -2.108916,-5.2e-4 -0.302823,-0.18448 c -0.852107,-0.51954 -0.992666,-1.71228 -0.280603,-2.38332 0.477017,-0.44952 0.754068,-0.49764 2.868558,-0.49764 h 1.932699 l 0.02791,-2.22364 0.0279,-2.22312 0.194304,-0.262 c 0.106903,-0.14414 0.336921,-0.36006 0.51108,-0.47956 z"
           style="fill:#298fff"
           id="path1" />
        <path
           style="fill:#ffffff;stroke:#1e1e1e;stroke-width:0.24328607;stroke-dasharray:none;stroke-opacity:1;fill-opacity:1"
           d="m 51.192507,152.21074 c -3.273491,-0.59923 -5.668786,-2.84397 -6.497129,-6.08877 l -0.177894,-0.69685 v -15.23775 -15.23774 l 0.164384,-0.69685 c 0.684995,-2.90381 2.832908,-5.13288 5.753998,-5.97142 l 0.678448,-0.19475 5.969666,-0.0345 5.969666,-0.0345 v 1.44516 1.44516 h -5.616669 -5.616669 l -0.492367,0.10192 c -1.666714,0.34502 -3.12035,1.62097 -3.781489,3.31926 l -0.241575,0.62054 -0.02487,14.98388 -0.02488,14.98389 0.13968,0.60228 c 0.217259,0.93681 0.64408,1.68239 1.386389,2.42179 l 0.660682,0.6581 0.603935,0.29225 c 0.332164,0.16074 0.853132,0.35588 1.157706,0.43364 l 0.553772,0.14138 15.28791,-0.001 15.287911,-0.001 0.594355,-0.1401 c 1.635437,-0.38551 2.975692,-1.58076 3.642556,-3.24848 l 0.222918,-0.55748 0.02487,-15.04324 0.02487,-15.04323 -0.142575,-0.56616 c -0.07842,-0.31139 -0.274292,-0.83794 -0.43528,-1.1701 l -0.292706,-0.60394 -0.658094,-0.65321 c -0.724319,-0.71895 -1.466329,-1.15678 -2.343942,-1.38305 l -0.57089,-0.14719 h -1.449969 -1.44997 v -1.45168 -1.45168 l 1.649207,0.0471 1.649208,0.0471 0.704193,0.18882 c 3.200541,0.85821 5.435523,3.24409 5.983727,6.38772 l 0.141192,0.80966 -7.02e-4,14.73778 -7.02e-4,14.73778 -0.09477,0.58403 c -0.515772,3.17831 -2.750777,5.64668 -5.934495,6.55414 l -0.705526,0.20109 -15.516486,0.0163 -15.516487,0.0163 z m 6.556632,-6.26387 c -1.007725,-0.32456 -1.675736,-0.92946 -2.166602,-1.96191 l -0.287134,-0.60393 v -9.75587 -9.75588 l 0.215614,-0.53394 c 0.121444,-0.30074 0.418826,-0.75628 0.680895,-1.04303 l 0.465282,-0.50909 0.617877,-0.30421 0.617878,-0.30421 9.386232,-0.0251 9.386233,-0.0251 0.619108,0.18792 c 1.134729,0.34442 2.057386,1.3147 2.352959,2.47439 l 0.144777,0.56805 -0.02536,9.51302 -0.02536,9.51303 -0.215614,0.53394 c -0.121445,0.30074 -0.418826,0.75628 -0.680896,1.04303 l -0.465281,0.50909 -0.617868,0.30421 -0.617868,0.30421 -9.432699,0.0193 -9.432698,0.0193 z m 18.600442,-1.97612 c 0.527515,-0.17892 0.837522,-0.45504 1.068983,-0.95213 l 0.220622,-0.47381 v -8.8732 -8.8732 l -0.220622,-0.47381 c -0.244051,-0.52412 -0.56415,-0.79748 -1.124803,-0.96054 l -0.371652,-0.1081 -8.647745,0.0279 -8.647745,0.0279 -0.376609,0.24926 c -0.207136,0.13709 -0.475834,0.40886 -0.597108,0.60393 l -0.220498,0.35468 -0.02503,9.04921 -0.02503,9.0492 0.197135,0.40723 c 0.211511,0.43692 0.655064,0.83115 1.077974,0.95809 0.143854,0.0432 4.112368,0.0821 8.81892,0.0865 l 8.557368,0.008 z M 61.779439,118.95496 c -0.982398,-0.32082 -1.650714,-0.93938 -1.996456,-1.84782 l -0.184615,-0.48508 0.0023,-0.6529 0.0023,-0.6529 0.199022,-0.53194 c 0.485076,-1.29648 1.647989,-2.2161 3.13721,-2.48087 l 0.582401,-0.10355 0.486099,0.0906 c 0.267355,0.0498 0.559269,0.11897 0.648698,0.1537 l 0.162598,0.0632 v -5.08289 -5.08289 l 0.150824,-0.31784 c 0.08295,-0.17481 0.267551,-0.40095 0.410217,-0.50254 l 0.259391,-0.1847 5.399268,-1.27316 5.399268,-1.273146 0.384048,0.135672 c 0.211226,0.07462 0.471457,0.253731 0.578291,0.398026 l 0.194243,0.262354 v 7.036184 7.03619 l -0.349277,0.70667 -0.349278,0.70667 -0.510386,0.46646 c -1.540048,1.40752 -3.664421,1.48985 -4.960553,0.19225 -1.968369,-1.97059 -0.540464,-5.34268 2.481809,-5.86094 l 0.648863,-0.11127 0.497367,0.0968 c 0.273552,0.0532 0.570536,0.1282 0.659965,0.16658 l 0.162597,0.0698 v -2.7302 -2.73021 l -0.144638,-0.2065 c -0.20237,-0.28892 -0.06911,-0.31142 -4.57038,0.77186 l -4.065269,0.97836 -0.185826,0.18553 -0.185826,0.18553 -0.04646,4.71287 -0.04646,4.71286 -0.208393,0.51102 c -0.755484,1.8526 -2.954663,3.02362 -4.642968,2.47227 z"
           id="path22"
           sodipodi:nodetypes="cscccscccccccccscccsscsscccsscccsscsscccccccsscccsscccccscccsccccccsscccsscccccccscccsccccsscccscscccscccssccccccsccccsscccccsssccccccsccccccscc" />
      </g>
    </g>
  </g>
</svg>
