<?xml version="1.0" encoding="UTF-8" standalone="no"?>
<!-- Created with Inkscape (http://www.inkscape.org/) -->

<svg
   width="440"
   height="224.6505"
   viewBox="0 0 116.41614 59.438759"
   version="1.1"
   id="svg1"
   sodipodi:docname="logo-dark.svg"
   inkscape:version="1.4.2 (ebf0e940d0, 2025-05-08)"
   inkscape:export-filename="logo-light.svg"
   inkscape:export-xdpi="96"
   inkscape:export-ydpi="96"
   xmlns:inkscape="http://www.inkscape.org/namespaces/inkscape"
   xmlns:sodipodi="http://sodipodi.sourceforge.net/DTD/sodipodi-0.dtd"
   xmlns="http://www.w3.org/2000/svg"
   xmlns:svg="http://www.w3.org/2000/svg">
  <sodipodi:namedview
     id="namedview1"
     pagecolor="#979797"
     bordercolor="#000000"
     borderopacity="0.25"
     inkscape:showpageshadow="2"
     inkscape:pageopacity="0.0"
     inkscape:pagecheckerboard="0"
     inkscape:deskcolor="#d1d1d1"
     inkscape:zoom="4.3440943"
     inkscape:cx="213.73845"
     inkscape:cy="101.28694"
     inkscape:window-width="2560"
     inkscape:window-height="2880"
     inkscape:window-x="0"
     inkscape:window-y="0"
     inkscape:window-maximized="1"
     inkscape:current-layer="g22"
     showgrid="false">
    <inkscape:page
       x="0"
       y="0"
       width="116.41614"
       height="59.438759"
       id="page2"
       margin="0"
       bleed="0" />
  </sodipodi:namedview>
  <defs
     id="defs1" />
  <g
     id="layer1"
     transform="translate(-56.621026,-87.312498)">
    <g
       id="g22"
       transform="translate(12.103348,-11.477736)">
      <path
         d="m 72.776172,129.63465 -0.316776,0.21704 c -0.174159,0.1195 -0.404177,0.33542 -0.51108,0.47956 l -0.194304,0.262 -0.0279,2.22312 -0.02791,2.22364 h -1.932699 c -2.11449,0 -2.391541,0.0481 -2.868558,0.49764 -0.712063,0.67104 -0.571504,1.86378 0.280603,2.38332 l 0.302823,0.18448 2.108916,5.2e-4 h 2.109432 l 0.02739,2.26084 0.0279,2.26033 0.267684,0.35088 c 0.475868,0.62349 1.491147,0.80112 2.076876,0.36381 0.135254,-0.10099 0.331821,-0.29878 0.437183,-0.43977 l 0.191719,-0.25632 0.02791,-2.26962 0.02791,-2.27015 h 2.13682 2.136821 l 0.263033,-0.13591 c 0.922198,-0.47689 1.104073,-1.72946 0.353467,-2.43654 -0.47414,-0.44665 -0.750786,-0.49351 -2.910934,-0.49351 h -1.979213 l -0.02791,-2.22312 -0.02791,-2.22364 -0.191719,-0.25631 c -0.105362,-0.14099 -0.303596,-0.33979 -0.440283,-0.44184 l -0.248047,-0.18552 -0.535885,-0.0377 z"
         style="fill:#ffffff"
         id="path2" />
      <path
         d="m 81.696041,126.20385 -8.648051,0.0279 -8.647534,0.0279 -0.376721,0.24908 c -0.207136,0.13709 -0.475589,0.40903 -0.596863,0.6041 l -0.220658,0.3545 -0.02532,9.04958 -0.0248,9.04906 0.197404,0.40721 c 0.211511,0.43692 0.65506,0.83114 1.07797,0.95808 0.143854,0.0432 4.112031,0.0828 8.818583,0.0868 l 8.557617,0.008 0.315743,-0.10697 c 0.527515,-0.17892 0.837208,-0.45531 1.068669,-0.9524 l 0.220658,-0.47387 v -8.87284 -8.87336 l -0.220658,-0.47388 c -0.244051,-0.52412 -0.563826,-0.7976 -1.124479,-0.96066 z m -8.919869,3.4308 0.535368,0.0372 0.535885,0.0377 0.248047,0.18552 c 0.136687,0.10205 0.334921,0.30085 0.440283,0.44184 l 0.191719,0.25631 0.02791,2.22364 0.02791,2.22312 h 1.979207 c 2.160148,0 2.436794,0.0469 2.910934,0.49351 0.750606,0.70708 0.568731,1.95965 -0.353467,2.43654 l -0.263033,0.13591 h -2.13683 -2.13682 l -0.02791,2.27015 -0.02791,2.26962 -0.191719,0.25632 c -0.105362,0.14099 -0.301929,0.33878 -0.437183,0.43977 -0.585729,0.43731 -1.601008,0.25968 -2.076876,-0.36381 l -0.267684,-0.35088 -0.0279,-2.26033 -0.02739,-2.26084 h -2.109432 l -2.108916,-5.2e-4 -0.302823,-0.18448 c -0.852107,-0.51954 -0.992666,-1.71228 -0.280603,-2.38332 0.477017,-0.44952 0.754068,-0.49764 2.868558,-0.49764 h 1.932699 l 0.02791,-2.22364 0.0279,-2.22312 0.194304,-0.262 c 0.106903,-0.14414 0.336921,-0.36006 0.51108,-0.47956 z"
         style="fill:#298fff"
         id="path1" />
      <path
         style="fill:#ffffff;stroke:#1e1e1e;stroke-opacity:1;stroke-width:0.24129993;stroke-dasharray:none"
         d="m 56.966262,155.15867 c -3.273491,-0.59923 -5.668786,-2.84397 -6.497129,-6.08877 l -0.177894,-0.69685 V 133.1353 117.89756 l 0.164384,-0.69685 c 0.684995,-2.90381 2.832908,-5.13288 5.753998,-5.97142 l 0.678448,-0.19475 5.969666,-0.0345 5.969666,-0.0345 v 1.44516 1.44516 h -5.616669 -5.616669 l -0.492367,0.10192 c -1.666714,0.34502 -3.12035,1.62097 -3.781489,3.31926 l -0.241575,0.62054 -0.02487,14.98388 -0.02488,14.98389 0.13968,0.60228 c 0.217259,0.93681 0.64408,1.68239 1.386389,2.42179 l 0.660682,0.6581 0.603935,0.29225 c 0.332164,0.16074 0.853132,0.35588 1.157706,0.43364 l 0.553772,0.14138 15.28791,-0.001 15.287911,-0.001 0.594355,-0.1401 c 1.635437,-0.38551 2.975692,-1.58076 3.642556,-3.24848 l 0.222918,-0.55748 0.02487,-15.04324 0.02487,-15.04323 -0.142575,-0.56616 c -0.07842,-0.31139 -0.274292,-0.83794 -0.43528,-1.1701 l -0.292706,-0.60394 -0.658094,-0.65321 c -0.724319,-0.71895 -1.466329,-1.15678 -2.343942,-1.38305 l -0.57089,-0.14719 H 86.72298 85.27301 v -1.45168 -1.45168 l 1.649207,0.0471 1.649208,0.0471 0.704193,0.18882 c 3.200541,0.85821 5.435523,3.24409 5.983727,6.38772 l 0.141192,0.80966 -7.02e-4,14.73778 -7.02e-4,14.73778 -0.09477,0.58403 c -0.515772,3.17831 -2.750777,5.64668 -5.934495,6.55414 l -0.705526,0.20109 -15.516486,0.0163 -15.516487,0.0163 z m 6.556632,-6.26387 c -1.007725,-0.32456 -1.675736,-0.92946 -2.166602,-1.96191 l -0.287134,-0.60393 v -9.75587 -9.75588 l 0.215614,-0.53394 c 0.121444,-0.30074 0.418826,-0.75628 0.680895,-1.04303 l 0.465282,-0.50909 0.617877,-0.30421 0.617878,-0.30421 9.386232,-0.0251 9.386233,-0.0251 0.619108,0.18792 c 1.134729,0.34442 2.057386,1.3147 2.352959,2.47439 l 0.144777,0.56805 -0.02536,9.51302 -0.02536,9.51303 -0.215614,0.53394 c -0.121445,0.30074 -0.418826,0.75628 -0.680896,1.04303 l -0.465281,0.50909 -0.617868,0.30421 -0.617868,0.30421 -9.432699,0.0193 -9.432698,0.0193 z m 18.600442,-1.97612 c 0.527515,-0.17892 0.837522,-0.45504 1.068983,-0.95213 l 0.220622,-0.47381 v -8.8732 -8.8732 l -0.220622,-0.47381 c -0.244051,-0.52412 -0.56415,-0.79748 -1.124803,-0.96054 l -0.371652,-0.1081 -8.647745,0.0279 -8.647745,0.0279 -0.376609,0.24926 c -0.207136,0.13709 -0.475834,0.40886 -0.597108,0.60393 l -0.220498,0.35468 -0.02503,9.04921 -0.02503,9.0492 0.197135,0.40723 c 0.211511,0.43692 0.655064,0.83115 1.077974,0.95809 0.143854,0.0432 4.112368,0.0821 8.81892,0.0865 l 8.557368,0.008 z m 20.152674,-6.6523 -1.1e-4,-6.20195 2.9501,0.0519 2.95009,0.0519 0.41811,0.14325 c 1.4889,0.51011 2.27085,1.22675 2.67882,2.45507 0.84964,2.55814 -0.33795,4.89474 -2.78038,5.47047 l -0.59529,0.14032 -1.50984,0.001 -1.50983,0.001 v 2.04409 2.04409 h -1.30078 -1.30079 z m 5.67722,-0.28193 0.49522,-0.2587 0.2587,-0.49521 0.2587,-0.49522 -0.002,-0.43072 c -0.007,-1.38523 -0.85953,-1.96239 -2.90149,-1.96328 l -1.18464,-5.2e-4 v 1.95118 1.95117 h 1.29017 1.29017 z m 4.16552,4.92758 c 1.23009,-3.51263 3.48571,-9.77724 3.86393,-10.73146 l 0.0645,-0.16259 h 1.37343 1.37344 l 0.35116,0.95235 c 0.19314,0.5238 1.21578,3.32513 2.27252,6.22518 l 1.92136,5.27282 h -1.37184 -1.37184 l -0.1483,-0.39488 c -0.0816,-0.21719 -0.28735,-0.81299 -0.45731,-1.32401 l -0.30902,-0.92913 -2.26814,-0.0248 -2.26815,-0.0248 -0.4645,1.34854 -0.4645,1.34854 -1.32085,2.7e-4 -1.32085,2.8e-4 z m 6.76596,-3.48424 c -0.0235,-0.0639 -0.34677,-1.03598 -0.71839,-2.16023 -0.37162,-1.12424 -0.70372,-2.07527 -0.73801,-2.11338 -0.0343,-0.0381 -0.39023,0.88173 -0.79099,2.04409 -0.40075,1.16236 -0.74825,2.16565 -0.77221,2.22952 l -0.0436,0.11615 h 1.55295 1.55294 z m 5.96928,-1.13801 v -6.19256 l 2.99645,0.0343 2.99644,0.0343 0.68151,0.24475 c 1.77613,0.63785 2.91329,1.81675 3.51999,3.64919 l 0.2461,0.74331 0.002,1.48661 0.002,1.48661 -0.24943,0.7433 c -0.64599,1.9251 -1.92382,3.16681 -3.83133,3.72305 l -0.55748,0.16256 -2.90354,0.0386 -2.90353,0.0386 z m 5.35333,3.75657 c 1.01977,-0.20314 1.85141,-0.93782 2.27711,-2.01162 l 0.21298,-0.53725 0.003,-1.11496 0.003,-1.11496 -0.15757,-0.51102 c -0.51676,-1.6759 -1.52431,-2.2951 -3.81202,-2.3427 l -1.27769,-0.0266 1.3e-4,3.86363 c 8e-5,2.125 0.0175,3.88106 0.0388,3.90235 0.0729,0.0731 2.2378,-0.0122 2.71315,-0.10689 z m 17.87882,-13.97997 c -0.4244,-0.0768 -0.99748,-0.27627 -1.47866,-0.5147 l -0.78568,-0.38932 -0.62805,-0.62805 -0.62805,-0.62805 -0.41691,-0.86972 c -0.2293,-0.47835 -0.49147,-1.1624 -0.5826,-1.52011 l -0.16569,-0.65039 0.004,-1.25433 0.004,-1.25433 0.19741,-0.72476 c 0.10857,-0.39863 0.3534,-1.02579 0.54407,-1.3937 l 0.34667,-0.66893 0.74766,-0.74729 0.74766,-0.74729 0.60885,-0.29479 c 0.82321,-0.39857 1.64046,-0.5769 2.65147,-0.57854 l 0.84459,-10e-4 0.72553,0.18556 c 0.98313,0.25144 1.82992,0.74294 2.56969,1.4915 l 0.61747,0.62482 0.38189,0.777 c 0.21003,0.42736 0.46804,1.1115 0.57334,1.52031 l 0.19145,0.74331 0.002,1.11496 0.002,1.11495 -0.15543,0.69685 c -0.0855,0.38327 -0.34087,1.08338 -0.56753,1.5558 l -0.4121,0.85895 -0.53242,0.53808 c -1.42855,1.44374 -3.32487,2.02023 -5.40648,1.64358 z m 2.51604,-2.57072 c 1.35133,-0.61865 2.01241,-2.03915 1.91566,-4.11623 l -0.0476,-1.02205 -0.19753,-0.51954 c -0.83916,-2.2072 -3.25057,-2.94682 -4.98199,-1.52805 l -0.40959,0.33563 -0.32867,0.67016 c -1.48431,3.02647 0.10266,6.57535 2.88213,6.44523 l 0.65548,-0.0307 z m -48.32607,-3.8363 v -6.27045 l 2.85708,0.0548 2.85707,0.0548 0.58154,0.12873 c 1.71437,0.37949 2.7907,1.53581 3.00763,3.23117 l 0.0848,0.66283 -0.099,0.65039 c -0.18482,1.21384 -0.89078,2.25172 -1.86639,2.74389 -0.22428,0.11314 -0.41981,0.2161 -0.43453,0.22879 -0.0147,0.0127 0.62519,1.08418 1.42202,2.38109 l 1.44877,2.35801 -1.46791,0.0257 -1.46791,0.0257 -0.12093,-0.16507 c -0.0665,-0.0908 -0.62521,-1.11627 -1.24157,-2.27885 l -1.12064,-2.11377 h -0.91922 -0.91922 v 2.27637 2.27637 h -1.30078 -1.30079 z m 6.03051,-0.6345 c 0.93861,-0.62163 1.02304,-2.07036 0.16459,-2.82409 -0.46697,-0.41 -0.84579,-0.49029 -2.31598,-0.49089 l -1.27755,-5.2e-4 v 1.8198 1.8198 l 1.51692,-0.0312 1.51693,-0.0312 z m 6.18364,3.44635 c 0.67509,-1.90489 1.67859,-4.70731 2.22999,-6.2276 l 1.00256,-2.76416 h 1.42045 1.42046 l 0.29291,0.76653 c 0.25506,0.66748 2.50153,6.83855 3.80513,10.45272 l 0.44405,1.2311 h -1.37057 -1.37057 l -0.36868,-1.04527 c -0.20277,-0.5749 -0.41942,-1.20207 -0.48144,-1.3937 l -0.11276,-0.34842 -2.24593,8e-4 -2.24594,7.9e-4 -0.47177,1.36967 -0.47177,1.36967 -1.35178,0.0256 -1.35177,0.0256 z m 6.16138,-1.67486 c -0.0226,-0.0639 -0.34804,-1.03598 -0.72314,-2.16023 -0.37509,-1.12425 -0.70884,-2.0762 -0.74165,-2.11545 -0.0328,-0.0392 -0.38787,0.88059 -0.789,2.04409 -0.40113,1.1635 -0.74769,2.16771 -0.77014,2.23159 l -0.0408,0.11614 h 1.55294 1.55295 z m 5.9677,-1.09048 v -6.24025 l 2.94999,0.0308 2.94999,0.0308 0.79387,0.28366 c 1.87541,0.67012 3.06191,1.97435 3.6328,3.99324 l 0.209,0.73912 v 1.16141 1.16142 l -0.20529,0.72558 c -0.61285,2.16609 -1.95098,3.49322 -4.15164,4.11751 l -0.55748,0.15815 -2.81062,0.0394 -2.81062,0.0394 z m 5.80707,3.62402 0.55748,-0.2106 0.52132,-0.52921 0.52132,-0.52921 0.2213,-0.55096 0.22129,-0.55096 -0.005,-1.25433 -0.005,-1.25432 -0.15976,-0.41811 c -0.39759,-1.04053 -1.18295,-1.80787 -2.14172,-2.0926 l -0.46241,-0.13732 h -1.23746 -1.23746 v 3.91406 3.91405 l 1.32401,-0.045 1.32401,-0.045 z m 6.55077,-3.6485 3.9e-4,-6.2484 1.30039,-8e-4 1.30039,-8.1e-4 v 6.24921 6.24921 h -1.30079 -1.30078 z m -71.423986,-1.7785 c -0.982398,-0.32082 -1.650714,-0.93938 -1.996456,-1.84782 l -0.184615,-0.48508 0.0023,-0.6529 0.0023,-0.6529 0.199022,-0.53194 c 0.485076,-1.29648 1.647989,-2.2161 3.13721,-2.48087 l 0.582401,-0.10355 0.486099,0.0906 c 0.267355,0.0498 0.559269,0.11897 0.648698,0.1537 l 0.162598,0.0632 v -5.08289 -5.08289 l 0.150824,-0.31784 c 0.08295,-0.17481 0.267551,-0.40095 0.410217,-0.50254 l 0.259391,-0.1847 5.399268,-1.27316 5.399268,-1.27315 0.384048,0.13567 c 0.211226,0.0746 0.471457,0.25373 0.578291,0.39803 l 0.194243,0.26235 v 7.03619 7.03619 l -0.349277,0.70667 -0.349278,0.70667 -0.510386,0.46646 c -1.540048,1.40752 -3.664421,1.48985 -4.960553,0.19225 -1.968369,-1.97059 -0.540464,-5.34268 2.481809,-5.86094 l 0.648863,-0.11127 0.497367,0.0968 c 0.273552,0.0532 0.570536,0.1282 0.659965,0.16658 l 0.162597,0.0698 v -2.7302 -2.73021 l -0.144638,-0.2065 c -0.20237,-0.28892 -0.06911,-0.31142 -4.57038,0.77186 l -4.065269,0.97836 -0.185826,0.18553 -0.185826,0.18553 -0.04646,4.71287 -0.04646,4.71286 -0.208393,0.51102 c -0.755484,1.8526 -2.954663,3.02362 -4.642968,2.47227 z"
         id="path22" />
    </g>
  </g>
</svg>
